<?xml version="1.0" encoding="UTF-8" standalone="no"?>
<!-- Created with Inkscape (http://www.inkscape.org/) -->

<svg
   xmlns:dc="http://purl.org/dc/elements/1.1/"
   xmlns:cc="http://creativecommons.org/ns#"
   xmlns:rdf="http://www.w3.org/1999/02/22-rdf-syntax-ns#"
   xmlns:svg="http://www.w3.org/2000/svg"
   xmlns="http://www.w3.org/2000/svg"
   xmlns:sodipodi="http://sodipodi.sourceforge.net/DTD/sodipodi-0.dtd"
   xmlns:inkscape="http://www.inkscape.org/namespaces/inkscape"
   width="1052.3622"
   height="744.09448"
   id="svg2"
   version="1.1"
   inkscape:version="0.48.4 r9939"
   sodipodi:docname="fonctions.svg">
  <sodipodi:namedview
     id="base"
     pagecolor="#ffffff"
     bordercolor="#666666"
     borderopacity="1.0"
     inkscape:pageopacity="0.0"
     inkscape:pageshadow="2"
     inkscape:zoom="0.98994949"
     inkscape:cx="641.68901"
     inkscape:cy="393.24298"
     inkscape:document-units="px"
     inkscape:current-layer="g3709"
     showgrid="false"
     inkscape:window-width="1627"
     inkscape:window-height="1026"
     inkscape:window-x="53"
     inkscape:window-y="24"
     inkscape:window-maximized="1" />
  <defs
     id="defs4">
    <marker
       inkscape:stockid="Arrow2Mend"
       orient="auto"
       refY="0.0"
       refX="0.0"
       id="Arrow2Mend"
       style="overflow:visible;">
      <path
         id="path5273"
         style="fill-rule:evenodd;stroke-width:0.62500000;stroke-linejoin:round;"
         d="M 8.7185878,4.0337352 L -2.2072895,0.016013256 L 8.7185884,-4.0017078 C 6.9730900,-1.6296469 6.9831476,1.6157441 8.7185878,4.0337352 z "
         transform="scale(0.6) rotate(180) translate(0,0)" />
    </marker>
    <marker
       inkscape:stockid="Arrow2MendW"
       orient="auto"
       refY="0.0"
       refX="0.0"
       id="Arrow2MendW"
       style="overflow:visible;">
      <path
         id="path5692"
         style="stroke-linejoin:round;stroke:#ff0000;stroke-width:0.62500000;fill:#ff0000;fill-rule:evenodd"
         d="M 8.7185878,4.0337352 L -2.2072895,0.016013256 L 8.7185884,-4.0017078 C 6.9730900,-1.6296469 6.9831476,1.6157441 8.7185878,4.0337352 z "
         transform="scale(0.6) rotate(180) translate(0,0)" />
    </marker>
    <marker
       inkscape:stockid="Arrow2Mend"
       orient="auto"
       refY="0"
       refX="0"
       id="Arrow2Mend-4"
       style="overflow:visible">
      <path
         id="path5273-1"
         style="fill-rule:evenodd;stroke-width:0.625;stroke-linejoin:round"
         d="M 8.7185878,4.0337352 -2.2072895,0.01601326 8.7185884,-4.0017078 c -1.7454984,2.3720609 -1.7354408,5.6174519 -6e-7,8.035443 z"
         transform="scale(-0.6,-0.6)"
         inkscape:connector-curvature="0" />
    </marker>
    <marker
       inkscape:stockid="Arrow2Mend6"
       orient="auto"
       refY="0.0"
       refX="0.0"
       id="Arrow2Mend6"
       style="overflow:visible;">
      <path
         id="path6239"
         style="stroke-linejoin:round;stroke:#ff6600;stroke-width:0.62500000;fill:#ff6600;fill-rule:evenodd"
         d="M 8.7185878,4.0337352 L -2.2072895,0.016013256 L 8.7185884,-4.0017078 C 6.9730900,-1.6296469 6.9831476,1.6157441 8.7185878,4.0337352 z "
         transform="scale(0.6) rotate(180) translate(0,0)" />
    </marker>
    <marker
       inkscape:stockid="Arrow2Mendm"
       orient="auto"
       refY="0.0"
       refX="0.0"
       id="Arrow2Mendm"
       style="overflow:visible;">
      <path
         id="path6370"
         style="stroke-linejoin:round;stroke:#0000ff;stroke-width:0.62500000;fill:#0000ff;fill-rule:evenodd"
         d="M 8.7185878,4.0337352 L -2.2072895,0.016013256 L 8.7185884,-4.0017078 C 6.9730900,-1.6296469 6.9831476,1.6157441 8.7185878,4.0337352 z "
         transform="scale(0.6) rotate(180) translate(0,0)" />
    </marker>
    <marker
       inkscape:stockid="Arrow2Mend-4U"
       orient="auto"
       refY="0"
       refX="0"
       id="Arrow2Mend-4U"
       style="overflow:visible">
      <path
         id="path6505"
         style="stroke-linejoin:round;stroke:#5599ff;stroke-width:0.625;fill:#5599ff;fill-rule:evenodd"
         d="M 8.7185878,4.0337352 -2.2072895,0.01601326 8.7185884,-4.0017078 c -1.7454984,2.3720609 -1.7354408,5.6174519 -6e-7,8.035443 z"
         transform="scale(-0.6,-0.6)"
         inkscape:connector-curvature="0" />
    </marker>
  </defs>
  <metadata
     id="metadata7">
    <rdf:RDF>
      <cc:Work
         rdf:about="">
        <dc:format>image/svg+xml</dc:format>
        <dc:type
           rdf:resource="http://purl.org/dc/dcmitype/StillImage" />
        <dc:title />
      </cc:Work>
    </rdf:RDF>
  </metadata>
  <g
     id="layer1"
     inkscape:groupmode="layer"
     inkscape:label="Layer 1"
     transform="translate(0,-308.2677)">
    <g
       id="g2990"
       transform="translate(-605.67073,6.2198087)">
      <g
         word-spacing="normal"
         letter-spacing="normal"
         font-size-adjust="none"
         font-stretch="normal"
         font-weight="normal"
         font-variant="normal"
         font-style="normal"
         stroke-miterlimit="10.433"
         xml:space="preserve"
         transform="matrix(1.0629921,0,0,-1.0629921,-186.02362,789.27165)"
         id="content"
         style="font-style:normal;font-variant:normal;font-weight:normal;font-stretch:normal;letter-spacing:normal;word-spacing:normal;text-anchor:start;fill:none;stroke:#000000;stroke-linecap:butt;stroke-linejoin:miter;stroke-miterlimit:10.43299961;stroke-opacity:1;stroke-dasharray:none;stroke-dashoffset:0"><path
           id="path2993"
           d="m 1044.9,379.32 h 4.3 c 1,0 1.5,0 1.5,1 0,0.55 -0.5,0.55 -1.4,0.55 h -4.1 l 1,5.68 c 0.2,1.05 0.9,4.58 1.2,5.18 0.5,0.95 1.3,1.7 2.4,1.7 0.2,0 1.5,0 2.4,-0.91 -2.2,-0.18 -2.7,-1.93 -2.7,-2.68 0,-1.14 0.9,-1.74 1.9,-1.74 1.3,0 2.7,1.1 2.7,2.99 0,2.29 -2.3,3.43 -4.3,3.43 -1.7,0 -4.9,-0.89 -6.4,-5.82 -0.2,-1.05 -0.4,-1.55 -1.6,-7.83 h -3.4 c -1,0 -1.5,0 -1.5,-0.94 0,-0.61 0.4,-0.61 1.4,-0.61 h 3.3 l -3.8,-19.67 c -0.9,-4.83 -1.7,-9.38 -4.3,-9.38 -0.2,0 -1.5,0 -2.4,0.91 2.3,0.14 2.7,1.94 2.7,2.69 0,1.14 -0.9,1.75 -1.8,1.75 -1.3,0 -2.8,-1.1 -2.8,-3 0,-2.24 2.2,-3.44 4.3,-3.44 2.7,0 4.7,2.94 5.6,4.84 1.6,3.14 2.7,9.16 2.8,9.52 z"
           inkscape:connector-curvature="0"
           style="fill:#000000;stroke-width:0" /><path
           id="path2995"
           d="m 1115.7,378.23 0,0.13 0,0.14 0,0.13 0,0.13 -0.1,0.13 0,0.12 0,0.12 -0.1,0.12 0,0.12 -0.1,0.11 -0.1,0.11 0,0.11 -0.1,0.1 -0.1,0.1 -0.1,0.1 -0.1,0.09 0,0.09 -0.1,0.08 -0.1,0.08 -0.1,0.07 -0.2,0.07 -0.1,0.07 -0.1,0.06 -0.1,0.05 -0.1,0.05 -0.1,0.04 -0.2,0.03 -0.1,0.03 -0.1,0.03 -0.1,0.01 -0.2,0.01 -0.1,0.01 c -1.5,0 -2.7,-1.19 -2.7,-2.64 0,-1.44 1.2,-2.64 2.7,-2.64 1.4,0 2.6,1.2 2.6,2.64 z"
           inkscape:connector-curvature="0"
           style="fill:#000000;stroke-width:0" /><path
           id="path2997"
           d="m 1115.7,362.04 0,0.13 0,0.14 0,0.13 0,0.13 -0.1,0.12 0,0.13 0,0.12 -0.1,0.12 0,0.12 -0.1,0.11 -0.1,0.11 0,0.11 -0.1,0.1 -0.1,0.1 -0.1,0.1 -0.1,0.09 0,0.09 -0.1,0.08 -0.1,0.08 -0.1,0.07 -0.2,0.07 -0.1,0.07 -0.1,0.06 -0.1,0.05 -0.1,0.05 -0.1,0.04 -0.2,0.04 -0.1,0.03 -0.1,0.02 -0.1,0.02 -0.2,0.01 -0.1,0 c -1.5,0 -2.7,-1.2 -2.7,-2.64 0,-1.44 1.2,-2.64 2.7,-2.64 1.4,0 2.6,1.2 2.6,2.64 z"
           inkscape:connector-curvature="0"
           style="fill:#000000;stroke-width:0" /><path
           id="path2999"
           d="m 1178.8,365.13 -0.2,-0.3 -0.2,-0.29 -0.2,-0.28 -0.1,-0.26 -0.2,-0.25 -0.2,-0.23 -0.2,-0.22 -0.2,-0.21 -0.2,-0.2 -0.2,-0.18 -0.2,-0.17 -0.1,-0.16 -0.2,-0.15 -0.2,-0.14 -0.2,-0.13 -0.2,-0.12 -0.2,-0.11 -0.2,-0.1 -0.2,-0.1 -0.2,-0.08 -0.1,-0.08 -0.2,-0.06 -0.2,-0.07 -0.2,-0.05 -0.2,-0.05 -0.2,-0.04 -0.2,-0.04 -0.2,-0.03 -0.4,-0.05 -0.4,-0.03 c -0.6,-0.05 -1.1,-0.05 -1.1,-1 0,-0.3 0.3,-0.55 0.7,-0.55 1.3,0 2.9,0.15 4.3,0.15 1.6,0 3.3,-0.15 4.9,-0.15 0.3,0 1,0 1,0.95 0,0.55 -0.5,0.6 -0.8,0.6 -1.2,0.09 -2.4,0.5 -2.4,1.73 0,0.61 0.3,1.16 0.7,1.84 l 3.8,6.39 h 12.5 l -0.1,1.54 h -11.4 l 9.8,16.45 1.6,-16.45 0.1,-1.54 c 0.1,-1.04 0.8,-7.82 0.8,-8.32 0,-1.5 -2.6,-1.64 -3.5,-1.64 -0.8,0 -1.3,0 -1.3,-1 0,-0.55 0.6,-0.55 0.8,-0.55 2,0 4.1,0.15 6.2,0.15 1.2,0 4.4,-0.15 5.6,-0.15 0.3,0 0.9,0 0.9,1 0,0.55 -0.5,0.55 -1.1,0.55 -3.1,0 -3.1,0.34 -3.3,1.79 l -3,31.13 c -0.1,1 -0.1,1.2 -1,1.2 -0.8,0 -1,-0.34 -1.3,-0.84 z"
           inkscape:connector-curvature="0"
           style="fill:#000000;stroke-width:0" /><path
           id="path3001"
           d="m 1298.5,370.85 -0.2,-0.19 -0.3,-0.2 -0.2,-0.19 -0.2,-0.2 -0.2,-0.19 -0.3,-0.19 -0.2,-0.19 -0.2,-0.19 -0.2,-0.18 -0.1,-0.18 -0.2,-0.18 -0.2,-0.18 -0.1,-0.17 -0.2,-0.17 -0.1,-0.17 -0.2,-0.16 -0.1,-0.16 -0.1,-0.15 -0.2,-0.15 -0.1,-0.14 -0.1,-0.14 -0.1,-0.13 -0.1,-0.13 -0.1,-0.12 0,-0.12 -0.1,-0.1 -0.1,-0.11 -0.1,-0.09 0,-0.09 -0.1,-0.08 0,-0.07 0,-0.07 c -2.3,-3.44 -2.7,-6.58 -2.7,-6.62 0,-0.6 0.6,-0.6 1,-0.6 0.9,0 0.9,0.1 1.1,1 1.2,4.88 4.1,9.06 9.7,11.36 0.6,0.19 0.8,0.3 0.8,0.64 0,0.35 -0.3,0.5 -0.4,0.55 -2.2,0.84 -8.3,3.34 -10.1,11.72 -0.2,0.59 -0.2,0.73 -1.1,0.73 -0.4,0 -1,0 -1,-0.59 0,-0.1 0.5,-3.24 2.6,-6.58 1,-1.48 2.4,-3.23 4.5,-4.83 h -37 c -0.9,0 -1.8,0 -1.8,-1 0,-1 0.9,-1 1.8,-1 z"
           inkscape:connector-curvature="0"
           style="fill:#000000;stroke-width:0" /><path
           id="path3003"
           d="m 1393,363.29 0,-0.18 -0.1,-0.17 0,-0.16 -0.1,-0.15 0,-0.15 -0.1,-0.13 0,-0.13 -0.1,-0.12 0,-0.11 -0.1,-0.11 0,-0.1 -0.1,-0.09 -0.1,-0.09 -0.1,-0.08 -0.1,-0.07 -0.1,-0.07 -0.1,-0.06 -0.1,-0.05 -0.1,-0.05 -0.2,-0.05 -0.2,-0.04 0,-0.02 -0.1,-0.01 -0.1,-0.02 -0.1,-0.02 -0.1,-0.01 -0.1,-0.01 -0.1,-0.02 -0.2,-0.01 -0.1,-0.01 -0.1,-0.01 -0.1,0 -0.1,-0.01 -0.2,-0.01 -0.1,0 -0.2,-0.01 -0.1,0 -0.2,-0.01 -0.1,0 -0.2,0 -0.2,0 -0.1,0 -0.2,0 c -0.9,0 -1.4,0 -1.4,-1 0,-0.55 0.5,-0.55 1.4,-0.55 h 17.7 c 7.9,0 13.8,5.87 13.8,10.76 0,3.58 -2.9,6.47 -7.7,7.02 5.2,0.95 10.4,4.64 10.4,9.37 0,3.69 -3.3,6.88 -9.3,6.88 l -0.7,-1.55 c 4.4,0 5.5,-2.93 5.5,-5.12 0,-4.39 -4.3,-9.13 -10.4,-9.13 h -7.3 l -0.3,-1.09 h 9.4 c 4.8,0 5.8,-3.69 5.8,-5.83 0,-4.94 -4.5,-9.76 -10.3,-9.76 h -6.8 c -0.7,0 -0.8,0 -1.1,0.04 -0.5,0.05 -0.6,0.1 -0.6,0.5 0,0.14 0,0.25 0.2,1.14 l 3.4,13.91 0.3,1.09 3.1,12.36 c 0.5,1.74 0.6,1.89 2.7,1.89 h 6.4 l 0.7,1.55 h -16.7 c -0.9,0 -1.5,0 -1.5,-1 0,-0.55 0.5,-0.55 1.4,-0.55 0.1,0 1.1,0 1.9,-0.09 0.9,-0.11 1.4,-0.16 1.4,-0.8 0,-0.2 -0.1,-0.36 -0.2,-0.95 z"
           inkscape:connector-curvature="0"
           style="fill:#000000;stroke-width:0" /><path
           id="path3005"
           d="m 1191,314.57 0,0.13 0,0.15 0.1,0.16 0,0.18 0.1,0.19 0,0.21 0.1,0.22 0.1,0.22 0,0.23 0.1,0.24 0.1,0.25 0.1,0.24 0.1,0.25 0.2,0.25 0.1,0.25 0.1,0.25 0.2,0.24 0.1,0.24 0.2,0.23 0.2,0.22 0.2,0.22 0.2,0.2 0.2,0.19 0.2,0.18 0.2,0.16 0.3,0.14 0.1,0.07 0.1,0.06 0.2,0.05 0.1,0.05 0.1,0.05 0.2,0.04 0.1,0.03 0.2,0.03 0.1,0.02 0.2,0.02 0.1,0.01 0.2,0 c 0.3,0 1.4,0 2.5,-0.64 -1.4,-0.25 -2.4,-1.5 -2.4,-2.69 0,-0.79 0.5,-1.75 1.9,-1.75 1.1,0 2.7,0.89 2.7,2.89 0,2.6 -3,3.29 -4.7,3.29 -2.8,0 -4.6,-2.65 -5.2,-3.79 -1.2,3.29 -3.9,3.79 -5.4,3.79 -5.1,0 -8,-6.43 -8,-7.68 0,-0.5 0.5,-0.5 0.6,-0.5 0.4,0 0.6,0.11 0.7,0.55 1.6,5.28 4.9,6.53 6.6,6.53 1,0 2.7,-0.44 2.7,-3.33 0,-1.54 -0.8,-4.89 -2.7,-11.86 -0.8,-3.09 -2.5,-5.18 -4.7,-5.18 -0.3,0 -1.4,0 -2.5,0.65 1.3,0.24 2.3,1.28 2.3,2.69 0,1.34 -1,1.73 -1.8,1.73 -1.5,0 -2.7,-1.29 -2.7,-2.89 0,-2.28 2.5,-3.28 4.6,-3.28 3.3,0 5.1,3.49 5.3,3.78 0.6,-1.84 2.4,-3.78 5.4,-3.78 5.1,0 7.9,6.42 7.9,7.67 0,0.5 -0.4,0.5 -0.6,0.5 -0.4,0 -0.5,-0.2 -0.6,-0.54 -1.6,-5.33 -5,-6.53 -6.6,-6.53 -2,0 -2.8,1.59 -2.8,3.29 0,1.1 0.3,2.19 0.9,4.38 z"
           inkscape:connector-curvature="0"
           style="fill:#000000;stroke-width:0" /><path
           id="path3007"
           d="m 1261.7,310.97 0.1,0 0,0 0,0 0.1,0 0,0.01 0.1,0 0,0 0.1,0.01 0,0.01 0.1,0 0,0.01 0.1,0.02 0.1,0.01 0,0.02 0.1,0.02 0,0.02 0.1,0.02 0.1,0.03 0,0.03 0.1,0.04 0,0.04 0.1,0.04 0,0.02 0,0.02 0,0.03 0,0.02 0.1,0.03 0,0.03 0,0.03 0,0.03 0,0.03 0,0.03 0.1,0.04 0,0.03 0,0.04 0,0.04 0,0.04 0,0.04 0,0.04 0,0.04 0,0.05 0,0.04 c 0,1 -1.1,1 -1.4,1 v 6.53 c 0,0.8 0,1.74 -1,1.74 -1,0 -1,-0.94 -1,-1.74 v -15.04 c 0,-0.8 0,-1.75 1,-1.75 1,0 1,0.95 1,1.75 z"
           inkscape:connector-curvature="0"
           style="fill:#000000;stroke-width:0" /><path
           id="path3009"
           d="m 1298.5,310.97 -0.2,-0.19 -0.3,-0.2 -0.2,-0.19 -0.2,-0.2 -0.2,-0.19 -0.3,-0.19 -0.2,-0.19 -0.2,-0.19 -0.1,-0.18 -0.2,-0.18 -0.2,-0.18 -0.2,-0.18 -0.1,-0.17 -0.2,-0.17 -0.1,-0.17 -0.2,-0.16 -0.1,-0.15 -0.1,-0.16 -0.2,-0.15 -0.1,-0.14 -0.1,-0.14 -0.1,-0.13 -0.1,-0.13 -0.1,-0.12 0,-0.11 -0.1,-0.11 -0.1,-0.11 0,-0.09 -0.1,-0.09 -0.1,-0.08 0,-0.07 0,-0.07 c -2.3,-3.44 -2.7,-6.58 -2.7,-6.62 0,-0.6 0.6,-0.6 1,-0.6 0.9,0 0.9,0.1 1.1,1 1.2,4.88 4.1,9.07 9.7,11.36 0.6,0.19 0.8,0.3 0.8,0.64 0,0.35 -0.3,0.5 -0.4,0.55 -2.2,0.84 -8.2,3.34 -10.1,11.72 -0.2,0.59 -0.2,0.73 -1.1,0.73 -0.4,0 -1,0 -1,-0.59 0,-0.09 0.5,-3.24 2.6,-6.58 1,-1.48 2.4,-3.23 4.5,-4.83 h -37 c -0.9,0 -1.8,0 -1.8,-1 0,-1 0.9,-1 1.8,-1 z"
           inkscape:connector-curvature="0"
           style="fill:#000000;stroke-width:0" /><path
           id="path3011"
           d="m 1374.9,319.44 h 4.3 c 1,0 1.5,0 1.5,1 0,0.55 -0.5,0.55 -1.4,0.55 h -4.1 l 1,5.69 c 0.2,1.04 0.9,4.57 1.2,5.17 0.5,0.95 1.3,1.7 2.4,1.7 0.1,0 1.4,0 2.4,-0.91 -2.2,-0.18 -2.7,-1.93 -2.7,-2.68 0,-1.14 0.9,-1.74 1.9,-1.74 1.3,0 2.7,1.1 2.7,2.99 0,2.29 -2.3,3.43 -4.3,3.43 -1.7,0 -4.9,-0.89 -6.4,-5.82 -0.3,-1.05 -0.4,-1.55 -1.6,-7.83 h -3.4 c -1,0 -1.5,0 -1.5,-0.94 0,-0.61 0.4,-0.61 1.3,-0.61 h 3.4 l -3.8,-19.67 c -0.9,-4.83 -1.7,-9.38 -4.3,-9.38 -0.2,0 -1.5,0 -2.4,0.91 2.3,0.14 2.7,1.94 2.7,2.69 0,1.14 -0.9,1.75 -1.8,1.75 -1.3,0 -2.8,-1.1 -2.8,-3 0,-2.24 2.2,-3.44 4.3,-3.44 2.7,0 4.7,2.94 5.6,4.84 1.6,3.15 2.7,9.16 2.8,9.52 z"
           inkscape:connector-curvature="0"
           style="fill:#000000;stroke-width:0" /><path
           id="path3013"
           d="m 1402.8,287.57 0,0.02 0,0.03 0,0.01 0,0.02 0,0.01 0,0.02 0,0.01 0,0.02 0,0.02 0,0.02 0,0.02 0,0.03 0,0.02 -0.1,0.03 0,0.03 0,0.03 0,0.03 -0.1,0.04 0,0.02 0,0.02 0,0.02 0,0.02 -0.1,0.02 0,0.03 0,0.02 0,0.02 0,0.03 -0.1,0.02 0,0.03 0,0.03 0,0.03 -0.1,0.03 0,0.03 0,0.03 -0.1,0.03 0,0.03 0,0.04 -0.1,0.03 0,0.04 0,0.03 -0.1,0.04 0,0.04 c -6.2,6.28 -7.8,15.69 -7.8,23.31 0,8.67 1.9,17.35 8,23.57 0.6,0.6 0.6,0.7 0.6,0.85 0,0.35 -0.1,0.49 -0.4,0.49 -0.5,0 -5,-3.38 -8,-9.7 -2.5,-5.49 -3.1,-11.02 -3.1,-15.21 0,-3.89 0.5,-9.9 3.3,-15.54 3,-6.13 7.3,-9.36 7.8,-9.36 0.3,0 0.4,0.14 0.4,0.5 z"
           inkscape:connector-curvature="0"
           style="fill:#000000;stroke-width:0" /><path
           id="path3015"
           d="m 1422.3,314.57 0,0.13 0.1,0.15 0,0.16 0.1,0.18 0,0.19 0.1,0.21 0,0.22 0.1,0.22 0.1,0.23 0.1,0.24 0.1,0.25 0.1,0.24 0.1,0.25 0.1,0.25 0.1,0.25 0.2,0.25 0.1,0.24 0.2,0.24 0.2,0.23 0.1,0.22 0.2,0.22 0.2,0.2 0.2,0.19 0.2,0.18 0.3,0.16 0.2,0.14 0.1,0.07 0.2,0.06 0.1,0.05 0.1,0.05 0.2,0.05 0.1,0.04 0.2,0.03 0.1,0.03 0.2,0.02 0.1,0.02 0.2,0.01 0.1,0 c 0.3,0 1.5,0 2.5,-0.64 -1.4,-0.25 -2.4,-1.5 -2.4,-2.69 0,-0.79 0.6,-1.75 1.9,-1.75 1.1,0 2.7,0.89 2.7,2.89 0,2.6 -2.9,3.29 -4.6,3.29 -2.9,0 -4.6,-2.65 -5.2,-3.79 -1.3,3.29 -4,3.79 -5.4,3.79 -5.2,0 -8,-6.43 -8,-7.68 0,-0.5 0.5,-0.5 0.6,-0.5 0.4,0 0.5,0.11 0.6,0.55 1.7,5.28 5,6.53 6.7,6.53 0.9,0 2.7,-0.44 2.7,-3.33 0,-1.54 -0.9,-4.89 -2.7,-11.86 -0.8,-3.09 -2.5,-5.18 -4.8,-5.18 -0.2,0 -1.4,0 -2.4,0.65 1.2,0.24 2.3,1.28 2.3,2.69 0,1.34 -1.1,1.73 -1.8,1.73 -1.5,0 -2.8,-1.29 -2.8,-2.89 0,-2.28 2.5,-3.28 4.7,-3.28 3.3,0 5.1,3.49 5.2,3.78 0.6,-1.84 2.4,-3.78 5.4,-3.78 5.2,0 8,6.42 8,7.67 0,0.5 -0.5,0.5 -0.6,0.5 -0.5,0 -0.6,-0.2 -0.7,-0.54 -1.6,-5.33 -5,-6.53 -6.6,-6.53 -1.9,0 -2.7,1.59 -2.7,3.29 0,1.1 0.3,2.19 0.8,4.38 z"
           inkscape:connector-curvature="0"
           style="fill:#000000;stroke-width:0" /><path
           id="path3017"
           d="m 1448.5,311.97 0,0.37 0,0.39 0,0.39 0,0.41 -0.1,0.84 0,0.88 -0.1,0.92 -0.1,0.95 -0.2,0.98 -0.1,1 -0.2,1.02 -0.2,1.03 -0.3,1.06 -0.3,1.05 -0.4,1.07 -0.4,1.07 -0.2,0.53 -0.2,0.53 -0.2,0.53 -0.3,0.53 c -3,6.12 -7.3,9.36 -7.8,9.36 -0.2,0 -0.5,-0.19 -0.5,-0.49 0,-0.15 0,-0.25 1,-1.15 4.9,-4.92 7.7,-12.85 7.7,-23.27 0,-8.51 -1.8,-17.28 -8,-23.56 -0.7,-0.59 -0.7,-0.7 -0.7,-0.84 0,-0.3 0.3,-0.5 0.5,-0.5 0.5,0 5,3.39 8,9.72 2.5,5.46 3.1,11 3.1,15.18 z"
           inkscape:connector-curvature="0"
           style="fill:#000000;stroke-width:0" /></g>    </g>
    <g
       id="g3709"
       transform="translate(-102.85715,-54.285713)">
      <rect
         style="fill:none;stroke:#ff0000;stroke-width:4;stroke-linecap:round;stroke-miterlimit:4;stroke-opacity:1;stroke-dasharray:none;stroke-dashoffset:0"
         id="rect3915"
         width="49.497498"
         height="52.527901"
         x="550.35474"
         y="422.77463" />
      <rect
         style="fill:none;stroke:#ff0000;stroke-width:4;stroke-linecap:round;stroke-miterlimit:4;stroke-opacity:1;stroke-dasharray:none;stroke-dashoffset:0"
         id="rect3915-4"
         width="49.497498"
         height="52.527901"
         x="643.79382"
         y="711.67828" />
      <rect
         style="fill:none;stroke:#ff6600;stroke-width:4;stroke-linecap:round;stroke-miterlimit:4;stroke-opacity:1;stroke-dasharray:none;stroke-dashoffset:0"
         id="rect3915-5"
         width="49.497498"
         height="52.527901"
         x="548.83948"
         y="491.46503" />
      <rect
         style="fill:none;stroke:#0000ff;stroke-width:4;stroke-linecap:round;stroke-miterlimit:4;stroke-opacity:1;stroke-dasharray:none;stroke-dashoffset:0"
         id="rect3915-6"
         width="49.497498"
         height="52.527901"
         x="779.1543"
         y="423.78476" />
      <rect
         style="fill:none;stroke:#ff6600;stroke-width:4;stroke-linecap:round;stroke-miterlimit:4;stroke-opacity:1;stroke-dasharray:none;stroke-dashoffset:0"
         id="rect3915-62"
         width="49.497498"
         height="52.527901"
         x="702.38263"
         y="712.68848" />
      <rect
         style="fill:none;stroke:#0000ff;stroke-width:4;stroke-linecap:round;stroke-miterlimit:4;stroke-opacity:1;stroke-dasharray:none;stroke-dashoffset:0"
         id="rect3915-2"
         width="49.497498"
         height="52.527901"
         x="517.52472"
         y="707.6377" />
      <rect
         style="fill:none;stroke:#5599ff;stroke-width:4;stroke-linecap:round;stroke-miterlimit:4;stroke-opacity:1;stroke-dasharray:none;stroke-dashoffset:0"
         id="rect3915-8"
         width="115.15741"
         height="65.659904"
         x="743.79895"
         y="485.40408" />
      <rect
         style="fill:none;stroke:#5599ff;stroke-width:4;stroke-linecap:round;stroke-miterlimit:4;stroke-opacity:1;stroke-dasharray:none;stroke-dashoffset:0"
         id="rect3915-8-6"
         width="115.15741"
         height="65.659904"
         x="700.86737"
         y="837.44232" />
      <g
         style="font-style:normal;font-variant:normal;font-weight:normal;font-stretch:normal;letter-spacing:normal;word-spacing:normal;text-anchor:start;fill:none;stroke:#000000;stroke-linecap:butt;stroke-linejoin:miter;stroke-miterlimit:10.43299961;stroke-opacity:1;stroke-dasharray:none;stroke-dashoffset:0"
         id="g5075"
         transform="matrix(1.0629921,0,0,-1.0629921,115.00184,1124.6423)"
         xml:space="preserve"
         stroke-miterlimit="10.433"
         font-style="normal"
         font-variant="normal"
         font-weight="normal"
         font-stretch="normal"
         font-size-adjust="none"
         letter-spacing="normal"
         word-spacing="normal"><path
           style="fill:#000000;stroke-width:0"
           inkscape:connector-curvature="0"
           d="m 388.85,350.33 -0.05,-0.18 -0.04,-0.17 -0.05,-0.16 -0.04,-0.15 -0.04,-0.14 -0.05,-0.14 -0.05,-0.13 -0.05,-0.12 -0.05,-0.11 -0.06,-0.11 -0.07,-0.1 -0.07,-0.09 -0.08,-0.08 -0.08,-0.08 -0.1,-0.08 -0.1,-0.06 -0.11,-0.06 -0.13,-0.06 -0.13,-0.05 -0.15,-0.05 -0.16,-0.04 -0.09,-0.01 -0.09,-0.02 -0.09,-0.02 -0.1,-0.01 -0.1,-0.02 -0.1,-0.01 -0.11,-0.01 -0.12,-0.01 -0.11,-0.01 -0.13,-0.01 -0.12,-0.01 -0.13,-0.01 -0.14,-0.01 -0.14,0 -0.14,-0.01 -0.15,0 -0.16,0 -0.16,-0.01 -0.17,0 -0.17,0 -0.17,0 -0.18,0 c -0.85,0 -1.35,0 -1.35,-1 0,-0.55 0.46,-0.55 1.35,-0.55 h 17.78 c 7.87,0 13.75,5.88 13.75,10.77 0,3.58 -2.89,6.47 -7.72,7.01 5.19,0.96 10.42,4.64 10.42,9.38 0,3.69 -3.3,6.87 -9.28,6.87 l -0.69,-1.54 c 4.38,0 5.42,-2.94 5.42,-5.13 0,-4.39 -4.28,-9.12 -10.36,-9.12 h -7.26 l -0.3,-1.1 h 9.41 c 4.78,0 5.73,-3.69 5.73,-5.83 0,-4.93 -4.43,-9.76 -10.31,-9.76 h -6.78 c -0.69,0 -0.8,0 -1.09,0.05 -0.5,0.04 -0.65,0.09 -0.65,0.5 0,0.14 0,0.25 0.25,1.14 l 3.44,13.9 0.3,1.1 3.08,12.36 c 0.45,1.73 0.54,1.89 2.7,1.89 h 6.42 l 0.69,1.54 h -16.73 c -0.94,0 -1.44,0 -1.44,-1 0,-0.54 0.44,-0.54 1.39,-0.54 0.09,0 1.05,0 1.89,-0.1 0.89,-0.11 1.34,-0.15 1.34,-0.79 0,-0.21 -0.04,-0.36 -0.2,-0.96 z"
           id="path5079" /><path
           style="fill:#000000;stroke-width:0"
           inkscape:connector-curvature="0"
           d="m 459.85,364.88 h 6.08 c 0.75,0 1.98,0 1.98,1.48 0,1.55 -1.19,1.55 -1.98,1.55 h -6.08 v 2.34 c 0,3.89 3.33,3.89 4.83,3.89 0,-0.2 0.45,-2.14 2.18,-2.14 1,0 2.14,0.8 2.14,2.19 0,2.99 -3.98,2.99 -4.78,2.99 -3.98,0 -7.81,-2.29 -7.81,-6.63 v -2.64 h -4.98 c -0.8,0 -2.05,0 -2.05,-1.55 0,-1.48 1.25,-1.48 2,-1.48 h 5.03 v -15.39 h -5.03 c -0.75,0 -2.05,0 -2.05,-1.5 0,-1.55 1.3,-1.55 2.05,-1.55 h 13.5 c 0.75,0 2.03,0 2.03,1.5 0,1.55 -1.28,1.55 -2.03,1.55 h -5.03 z"
           id="path5081" /><path
           style="fill:#000000;stroke-width:0"
           inkscape:connector-curvature="0"
           d="m 495.16,343.75 0,0.07 0,0.07 -0.01,0.06 -0.01,0.06 -0.01,0.06 -0.01,0.05 -0.01,0.06 -0.02,0.05 -0.02,0.05 -0.02,0.04 -0.02,0.05 -0.03,0.04 -0.02,0.05 -0.03,0.04 -0.04,0.04 -0.03,0.04 -0.04,0.04 -0.04,0.04 -0.05,0.04 -0.04,0.04 -0.05,0.04 -0.05,0.04 -0.06,0.04 -0.06,0.05 -0.06,0.04 -0.06,0.05 -0.07,0.04 -0.07,0.05 -0.07,0.05 -0.07,0.05 -0.08,0.06 -0.08,0.05 c -6.19,4.19 -8.47,10.81 -8.47,16.39 0,4.99 1.89,11.91 8.56,16.44 0.8,0.55 1.14,0.75 1.14,1.5 0,0.39 -0.25,1.39 -1.53,1.39 -1.45,0 -11.61,-6.58 -11.61,-19.33 0,-5.94 2.28,-10.42 4.03,-12.9 2.64,-3.65 6.38,-6.43 7.58,-6.43 1.28,0 1.53,0.99 1.53,1.39 z"
           id="path5083" /><path
           style="fill:#000000;stroke-width:0"
           inkscape:connector-curvature="0"
           d="m 508.47,352.18 -0.18,-0.31 -0.19,-0.29 -0.19,-0.28 -0.18,-0.26 -0.19,-0.25 -0.19,-0.23 -0.18,-0.22 -0.19,-0.21 -0.19,-0.2 -0.18,-0.18 -0.19,-0.17 -0.19,-0.16 -0.18,-0.15 -0.19,-0.14 -0.19,-0.13 -0.19,-0.12 -0.19,-0.11 -0.19,-0.1 -0.19,-0.09 -0.19,-0.09 -0.19,-0.07 -0.2,-0.07 -0.19,-0.06 -0.19,-0.06 -0.2,-0.05 -0.2,-0.04 -0.19,-0.04 -0.2,-0.03 -0.4,-0.05 -0.41,-0.03 c -0.61,-0.05 -1.05,-0.05 -1.05,-1 0,-0.3 0.25,-0.55 0.64,-0.55 1.35,0 2.89,0.16 4.28,0.16 1.64,0 3.39,-0.16 4.99,-0.16 0.29,0 0.95,0 0.95,0.95 0,0.55 -0.45,0.6 -0.8,0.6 -1.15,0.09 -2.34,0.5 -2.34,1.73 0,0.61 0.3,1.16 0.69,1.85 l 3.79,6.39 H 526 l -0.14,1.53 h -11.42 l 9.83,16.45 1.59,-16.45 0.14,-1.53 c 0.11,-1.05 0.8,-7.83 0.8,-8.33 0,-1.5 -2.59,-1.64 -3.58,-1.64 -0.7,0 -1.2,0 -1.2,-1 0,-0.55 0.59,-0.55 0.7,-0.55 2.03,0 4.19,0.16 6.22,0.16 1.25,0 4.39,-0.16 5.64,-0.16 0.3,0 0.89,0 0.89,1 0,0.55 -0.5,0.55 -1.14,0.55 -3.09,0 -3.09,0.34 -3.25,1.8 l -3.03,31.12 c -0.11,1 -0.11,1.2 -0.95,1.2 -0.8,0 -0.99,-0.34 -1.3,-0.84 z"
           id="path5085" /><path
           style="fill:#000000;stroke-width:0"
           inkscape:connector-curvature="0"
           d="m 579.67,361.49 0.03,0.13 0.03,0.15 0.05,0.16 0.04,0.18 0.05,0.2 0.06,0.2 0.07,0.22 0.07,0.22 0.08,0.24 0.09,0.24 0.09,0.24 0.11,0.25 0.11,0.25 0.12,0.25 0.13,0.25 0.14,0.24 0.14,0.24 0.16,0.24 0.17,0.23 0.17,0.23 0.19,0.21 0.2,0.2 0.21,0.19 0.22,0.18 0.23,0.16 0.25,0.14 0.12,0.07 0.13,0.06 0.13,0.05 0.14,0.05 0.14,0.05 0.14,0.04 0.15,0.03 0.15,0.03 0.15,0.02 0.15,0.02 0.16,0.01 0.16,0 c 0.25,0 1.44,0 2.49,-0.64 -1.39,-0.25 -2.39,-1.5 -2.39,-2.68 0,-0.8 0.55,-1.75 1.89,-1.75 1.09,0 2.69,0.89 2.69,2.89 0,2.59 -2.94,3.28 -4.63,3.28 -2.89,0 -4.64,-2.64 -5.23,-3.78 -1.25,3.28 -3.94,3.78 -5.38,3.78 -5.19,0 -8.03,-6.42 -8.03,-7.67 0,-0.5 0.5,-0.5 0.61,-0.5 0.39,0 0.55,0.1 0.64,0.54 1.69,5.28 4.99,6.53 6.67,6.53 0.96,0 2.69,-0.43 2.69,-3.32 0,-1.55 -0.84,-4.9 -2.69,-11.86 -0.79,-3.1 -2.53,-5.19 -4.73,-5.19 -0.3,0 -1.44,0 -2.48,0.65 1.25,0.24 2.34,1.29 2.34,2.69 0,1.35 -1.09,1.74 -1.84,1.74 -1.5,0 -2.75,-1.3 -2.75,-2.89 0,-2.29 2.5,-3.29 4.68,-3.29 3.3,0 5.08,3.49 5.24,3.79 0.59,-1.85 2.39,-3.79 5.37,-3.79 5.14,0 7.99,6.43 7.99,7.68 0,0.5 -0.46,0.5 -0.61,0.5 -0.44,0 -0.55,-0.21 -0.64,-0.55 -1.65,-5.33 -5.03,-6.53 -6.63,-6.53 -1.95,0 -2.75,1.59 -2.75,3.3 0,1.09 0.3,2.18 0.86,4.37 z"
           id="path5087" /><path
           style="fill:#000000;stroke-width:0"
           inkscape:connector-curvature="0"
           d="m 609,361.69 -0.01,0.55 -0.02,0.54 -0.03,0.54 -0.05,0.52 -0.05,0.52 -0.07,0.51 -0.07,0.5 -0.09,0.48 -0.09,0.48 -0.11,0.48 -0.11,0.46 -0.12,0.45 -0.12,0.44 -0.14,0.43 -0.14,0.43 -0.14,0.41 -0.15,0.4 -0.16,0.39 -0.16,0.39 -0.16,0.37 -0.17,0.36 -0.16,0.35 -0.17,0.34 -0.18,0.33 -0.17,0.32 -0.17,0.31 -0.18,0.29 -0.17,0.29 -0.17,0.27 -0.17,0.27 -0.17,0.25 -0.16,0.24 c -2.65,3.62 -6.38,6.42 -7.58,6.42 -1.24,0 -1.54,-1 -1.54,-1.39 0,-0.75 0.55,-1.11 0.8,-1.25 8.17,-5.44 8.91,-13.45 8.91,-16.69 0,-4.98 -1.84,-11.9 -8.56,-16.45 -0.75,-0.49 -1.15,-0.74 -1.15,-1.49 0,-0.4 0.3,-1.39 1.54,-1.39 1.45,0 11.61,6.57 11.61,19.33 z"
           id="path5089" /><path
           style="fill:#000000;stroke-width:0"
           inkscape:connector-curvature="0"
           d="m 631.72,377.18 0,0.19 0.01,0.19 0.02,0.21 0.03,0.2 0.04,0.22 0.05,0.21 0.06,0.22 0.07,0.22 0.09,0.22 0.09,0.22 0.11,0.22 0.12,0.21 0.14,0.22 0.15,0.22 0.16,0.21 0.18,0.2 0.2,0.2 0.21,0.2 0.23,0.19 0.25,0.18 0.26,0.18 0.29,0.16 0.3,0.16 0.32,0.15 0.35,0.14 0.36,0.12 0.38,0.11 0.41,0.1 0.21,0.05 0.22,0.04 0.22,0.04 0.23,0.03 0.23,0.03 0.24,0.03 0.25,0.02 0.25,0.02 c 0.25,0.04 0.45,0.25 0.45,0.54 0,0.55 -0.4,0.55 -0.95,0.55 -4.98,0 -9.52,-2.53 -9.56,-6.22 v -11.36 c 0,-1.93 0,-3.54 -2,-5.18 -1.74,-1.44 -3.64,-1.55 -4.74,-1.6 -0.25,-0.05 -0.43,-0.25 -0.43,-0.55 0,-0.5 0.29,-0.5 0.79,-0.54 3.28,-0.21 5.67,-1.99 6.22,-4.44 0.16,-0.55 0.16,-0.64 0.16,-2.44 v -9.86 c 0,-2.09 0,-3.68 2.39,-5.57 1.94,-1.5 5.23,-2.05 7.17,-2.05 0.55,0 0.95,0 0.95,0.55 0,0.5 -0.31,0.5 -0.8,0.54 -3.13,0.21 -5.59,1.8 -6.23,4.33 -0.15,0.45 -0.15,0.55 -0.15,2.34 v 10.47 c 0,2.3 -0.4,3.14 -1.99,4.74 -1.05,1.04 -2.5,1.54 -3.89,1.93 4.09,1.15 5.88,3.44 5.88,6.33 z"
           id="path5091" /><path
           style="fill:#000000;stroke-width:0"
           inkscape:connector-curvature="0"
           d="m 397.07,289.77 -0.01,0.17 -0.01,0.17 -0.02,0.17 -0.03,0.16 -0.04,0.15 -0.04,0.16 -0.05,0.15 -0.06,0.14 -0.07,0.14 -0.07,0.14 -0.07,0.13 -0.09,0.13 -0.09,0.12 -0.09,0.12 -0.1,0.11 -0.11,0.11 -0.1,0.1 -0.12,0.09 -0.12,0.09 -0.12,0.09 -0.12,0.07 -0.13,0.08 -0.13,0.06 -0.14,0.06 -0.14,0.06 -0.14,0.04 -0.14,0.04 -0.14,0.03 -0.15,0.03 -0.14,0.02 -0.15,0.01 -0.15,0 c -1.91,0 -3.14,-1.54 -3.14,-3.09 0,-1.84 1.48,-3.14 3.08,-3.14 1.9,0 3.14,1.55 3.14,3.09 z"
           id="path5093" /><path
           style="fill:#000000;stroke-width:0"
           inkscape:connector-curvature="0"
           d="m 423.22,289.77 0,0.17 -0.01,0.17 -0.03,0.17 -0.02,0.16 -0.04,0.15 -0.04,0.16 -0.06,0.15 -0.05,0.14 -0.07,0.14 -0.07,0.14 -0.08,0.13 -0.08,0.13 -0.09,0.12 -0.09,0.12 -0.1,0.11 -0.11,0.11 -0.11,0.1 -0.11,0.09 -0.12,0.09 -0.12,0.09 -0.13,0.07 -0.13,0.08 -0.13,0.06 -0.13,0.06 -0.14,0.06 -0.14,0.04 -0.14,0.04 -0.15,0.03 -0.14,0.03 -0.15,0.02 -0.15,0.01 -0.15,0 c -1.9,0 -3.14,-1.54 -3.14,-3.09 0,-1.84 1.49,-3.14 3.08,-3.14 1.91,0 3.14,1.55 3.14,3.09 z"
           id="path5095" /><path
           style="fill:#000000;stroke-width:0"
           inkscape:connector-curvature="0"
           d="m 449.38,289.77 -0.01,0.17 -0.01,0.17 -0.02,0.17 -0.03,0.16 -0.03,0.15 -0.05,0.16 -0.05,0.15 -0.06,0.14 -0.06,0.14 -0.07,0.14 -0.08,0.13 -0.08,0.13 -0.09,0.12 -0.1,0.12 -0.1,0.11 -0.1,0.11 -0.11,0.1 -0.12,0.09 -0.11,0.09 -0.12,0.09 -0.13,0.07 -0.13,0.08 -0.13,0.06 -0.14,0.06 -0.13,0.06 -0.14,0.04 -0.15,0.04 -0.14,0.03 -0.14,0.03 -0.15,0.02 -0.15,0.01 -0.15,0 c -1.91,0 -3.14,-1.54 -3.14,-3.09 0,-1.84 1.48,-3.14 3.08,-3.14 1.9,0 3.14,1.55 3.14,3.09 z"
           id="path5097" /><path
           style="fill:#000000;stroke-width:0"
           inkscape:connector-curvature="0"
           d="m 391.94,236.07 0.01,0.44 0.03,0.43 0.04,0.44 0.06,0.44 0.08,0.43 0.09,0.43 0.11,0.42 0.13,0.42 0.15,0.42 0.17,0.4 0.18,0.4 0.2,0.38 0.22,0.38 0.23,0.36 0.25,0.36 0.27,0.34 0.29,0.33 0.31,0.31 0.32,0.29 0.34,0.29 0.36,0.26 0.38,0.24 0.39,0.23 0.41,0.2 0.43,0.19 0.45,0.16 0.47,0.14 0.48,0.12 0.51,0.09 0.52,0.07 0.53,0.04 0.56,0.02 c 0.05,-1.21 0.89,-2.19 2.14,-2.19 1.09,0 2.09,0.8 2.09,2.14 0,0.98 -0.59,3.08 -4.73,3.08 -2.55,0 -5.73,-0.89 -8.47,-4.03 v 1.7 c 0,1.53 -0.3,2.03 -2,2.03 h -5.47 c -0.75,0 -2,0 -2,-1.48 0,-1.55 1.21,-1.55 2,-1.55 h 4.03 v -15.39 h -4.03 c -0.75,0 -2,0 -2,-1.5 0,-1.55 1.21,-1.55 2,-1.55 h 13 c 0.75,0 2.05,0 2.05,1.5 0,1.55 -1.3,1.55 -2.05,1.55 h -5.53 z"
           id="path5099" /><path
           style="fill:#000000;stroke-width:0"
           inkscape:connector-curvature="0"
           d="m 428.16,236.32 0.19,0 0.2,0 0.09,0 0.09,0.01 0.09,0.01 0.09,0 0.09,0.02 0.08,0.01 0.09,0.02 0.08,0.02 0.08,0.03 0.07,0.03 0.08,0.04 0.07,0.04 0.06,0.04 0.07,0.05 0.06,0.06 0.05,0.07 0.06,0.07 0.02,0.04 0.03,0.04 0.02,0.04 0.02,0.04 0.02,0.05 0.02,0.04 0.02,0.05 0.02,0.06 0.02,0.05 0.01,0.06 0.02,0.05 0.01,0.06 0.01,0.07 0.01,0.06 0.01,0.07 0.01,0.07 0.01,0.07 0,0.08 0.01,0.07 0,0.08 0,0.08 0,0.09 c 0,5.67 -3.18,10.56 -9.65,10.56 -5.94,0 -10.72,-4.98 -10.72,-11.11 0,-6.07 5.03,-11.11 11.47,-11.11 6.58,0 8.9,4.49 8.9,5.74 0,1.39 -1.43,1.39 -1.73,1.39 -0.89,0 -1.3,-0.16 -1.64,-1.09 -1.09,-2.55 -3.8,-3 -5.19,-3 -3.73,0 -7.47,2.5 -8.26,6.78 l 0.04,2.98 c 0.71,3.64 3.64,6.38 7.13,6.38 2.59,0 5.67,-1.24 6.12,-6.38 h -13.25 l -0.04,-2.98 z"
           id="path5101" /><path
           style="fill:#000000;stroke-width:0"
           inkscape:connector-curvature="0"
           d="m 444.25,245.24 h 8.18 c 0.75,0 1.98,0 1.98,1.48 0,1.55 -1.19,1.55 -1.98,1.55 h -8.18 v 4.09 c 0,0.94 0,2.04 -1.7,2.04 -1.73,0 -1.73,-1.04 -1.73,-2.04 v -4.09 h -4.35 c -0.79,0 -2.03,0 -2.03,-1.55 0,-1.48 1.24,-1.48 1.99,-1.48 h 4.39 v -12.16 c 0,-4.78 3.39,-6.58 7.01,-6.58 3.69,0 7.74,2.15 7.74,6.58 0,0.89 0,1.94 -1.75,1.94 -1.64,0 -1.69,-1.05 -1.69,-1.89 -0.06,-3.09 -2.89,-3.59 -4.05,-3.59 -3.83,0 -3.83,2.59 -3.83,3.84 z"
           id="path5103" /><path
           style="fill:#000000;stroke-width:0"
           inkscape:connector-curvature="0"
           d="m 477.19,228.4 0,-0.08 0.01,-0.07 0,-0.07 0.01,-0.07 0.01,-0.06 0.01,-0.06 0.01,-0.06 0.01,-0.06 0.02,-0.06 0.01,-0.05 0.02,-0.05 0.02,-0.05 0.01,-0.05 0.02,-0.05 0.02,-0.04 0.03,-0.05 0.02,-0.04 0.02,-0.04 0.03,-0.03 0.02,-0.04 0.06,-0.07 0.05,-0.06 0.07,-0.06 0.06,-0.05 0.07,-0.04 0.07,-0.04 0.07,-0.03 0.07,-0.04 0.08,-0.02 0.08,-0.02 0.08,-0.02 0.08,-0.02 0.08,-0.01 0.09,-0.01 0.08,-0.01 0.09,-0.01 0.17,-0.01 0.17,0 0.17,0 h 3.64 c 0.79,0 2.04,0 2.04,1.55 0,1.5 -1.29,1.5 -2,1.5 h -2.23 v 16.39 c 0,1.53 -0.31,2.03 -2,2.03 h -3.64 c -0.8,0 -2.05,0 -2.05,-1.55 0,-1.48 1.3,-1.48 2,-1.48 h 2.25 v -10.61 c 0,-4.48 -4.05,-5.09 -5.64,-5.09 -3.94,0 -3.94,1.65 -3.94,3.25 v 13.45 c 0,1.53 -0.29,2.03 -1.98,2.03 h -3.64 c -0.8,0 -2.05,0 -2.05,-1.55 0,-1.48 1.3,-1.48 2,-1.48 h 2.24 v -12.77 c 0,-4.78 3.43,-5.97 7.07,-5.97 2.05,0 4.1,0.5 5.94,1.9 z"
           id="path5105" /><path
           style="fill:#000000;stroke-width:0"
           inkscape:connector-curvature="0"
           d="m 496.57,236.07 0,0.44 0.03,0.43 0.04,0.44 0.06,0.44 0.08,0.43 0.1,0.43 0.11,0.42 0.13,0.42 0.15,0.42 0.16,0.4 0.18,0.4 0.2,0.38 0.22,0.38 0.24,0.36 0.25,0.36 0.27,0.34 0.29,0.33 0.3,0.31 0.33,0.29 0.34,0.29 0.36,0.26 0.37,0.24 0.4,0.23 0.41,0.2 0.43,0.19 0.45,0.16 0.46,0.14 0.49,0.12 0.5,0.09 0.52,0.07 0.54,0.04 0.56,0.02 c 0.04,-1.21 0.89,-2.19 2.14,-2.19 1.09,0 2.09,0.8 2.09,2.14 0,0.98 -0.59,3.08 -4.73,3.08 -2.55,0 -5.74,-0.89 -8.47,-4.03 v 1.7 c 0,1.53 -0.3,2.03 -2,2.03 h -5.47 c -0.75,0 -2,0 -2,-1.48 0,-1.55 1.2,-1.55 2,-1.55 h 4.03 v -15.39 h -4.03 c -0.75,0 -2,0 -2,-1.5 0,-1.55 1.2,-1.55 2,-1.55 h 13 c 0.75,0 2.04,0 2.04,1.5 0,1.55 -1.29,1.55 -2.04,1.55 h -5.53 z"
           id="path5107" /><path
           style="fill:#000000;stroke-width:0"
           inkscape:connector-curvature="0"
           d="m 519.93,245.93 0,0.14 0,0.15 -0.01,0.13 0,0.13 0,0.13 -0.01,0.12 0,0.12 -0.01,0.11 -0.02,0.11 -0.01,0.11 -0.02,0.09 -0.03,0.1 -0.03,0.09 -0.03,0.08 -0.04,0.08 -0.04,0.08 -0.05,0.07 -0.06,0.06 -0.06,0.06 -0.07,0.06 -0.07,0.05 -0.09,0.05 -0.04,0.02 -0.05,0.02 -0.05,0.02 -0.05,0.02 -0.05,0.02 -0.06,0.01 -0.06,0.02 -0.06,0.01 -0.06,0.01 -0.07,0.01 -0.06,0.02 -0.07,0 -0.08,0.01 -0.07,0.01 -0.08,0.01 -0.08,0 -0.08,0.01 -0.09,0 -0.09,0 -0.09,0 h -3.64 c -0.8,0 -2.05,0 -2.05,-1.55 0,-1.48 1.3,-1.48 2,-1.48 h 2.24 v -15.39 h -2.19 c -0.8,0 -2.05,0 -2.05,-1.55 0,-1.5 1.3,-1.5 2,-1.5 h 7.93 c 0.68,0 1.98,0 1.98,1.5 0,1.55 -1.23,1.55 -2.03,1.55 h -2.2 v 8.81 c 0,4.99 3.68,6.88 6.23,6.88 2.64,0 3.34,-1.39 3.34,-4.39 v -11.3 h -1.95 c -0.8,0 -2.05,0 -2.05,-1.55 0,-1.5 1.36,-1.5 2.05,-1.5 h 7.63 c 0.7,0 2,0 2,1.5 0,1.55 -1.25,1.55 -2.05,1.55 h -2.19 v 11.55 c 0,5.03 -2.54,7.17 -6.48,7.17 -3.35,0 -5.58,-1.69 -6.53,-2.64 z"
           id="path5109" /><path
           style="fill:#000000;stroke-width:0"
           inkscape:connector-curvature="0"
           d="m 582.14,246.72 h 4.28 c 1,0 1.5,0 1.5,1 0,0.55 -0.5,0.55 -1.34,0.55 h -4.14 l 1.04,5.69 c 0.21,1.04 0.91,4.58 1.21,5.17 0.45,0.95 1.29,1.7 2.34,1.7 0.19,0 1.49,0 2.44,-0.9 -2.19,-0.19 -2.69,-1.94 -2.69,-2.69 0,-1.14 0.89,-1.74 1.84,-1.74 1.3,0 2.74,1.1 2.74,2.99 0,2.3 -2.3,3.44 -4.33,3.44 -1.7,0 -4.84,-0.89 -6.33,-5.83 -0.29,-1.05 -0.45,-1.55 -1.64,-7.83 h -3.44 c -0.95,0 -1.5,0 -1.5,-0.94 0,-0.61 0.46,-0.61 1.4,-0.61 h 3.29 l -3.75,-19.67 c -0.89,-4.83 -1.73,-9.37 -4.33,-9.37 -0.2,0 -1.43,0 -2.39,0.9 2.3,0.14 2.74,1.94 2.74,2.69 0,1.14 -0.89,1.75 -1.85,1.75 -1.29,0 -2.73,-1.09 -2.73,-3 0,-2.23 2.19,-3.44 4.23,-3.44 2.74,0 4.74,2.94 5.63,4.85 1.59,3.14 2.75,9.15 2.8,9.51 z"
           id="path5111" /><path
           style="fill:#000000;stroke-width:0"
           inkscape:connector-curvature="0"
           d="m 610.1,214.85 0,0.02 0,0.03 0,0.01 0,0.02 -0.01,0.01 0,0.02 -0.01,0.02 0,0.01 -0.01,0.02 -0.01,0.02 -0.01,0.02 -0.02,0.03 -0.01,0.02 -0.02,0.03 -0.02,0.03 -0.03,0.03 -0.02,0.04 -0.03,0.03 -0.02,0.02 -0.02,0.02 -0.01,0.02 -0.02,0.02 -0.02,0.02 -0.02,0.03 -0.02,0.02 -0.02,0.02 -0.03,0.03 -0.02,0.03 -0.03,0.02 -0.02,0.03 -0.03,0.03 -0.02,0.03 -0.03,0.03 -0.03,0.03 -0.03,0.03 -0.04,0.03 -0.03,0.04 -0.03,0.03 -0.04,0.04 -0.04,0.03 -0.03,0.04 -0.04,0.04 c -6.22,6.28 -7.81,15.69 -7.81,23.31 0,8.68 1.89,17.35 8.01,23.57 0.64,0.61 0.64,0.7 0.64,0.86 0,0.34 -0.19,0.48 -0.48,0.48 -0.5,0 -4.99,-3.37 -7.92,-9.7 -2.55,-5.49 -3.15,-11.02 -3.15,-15.21 0,-3.89 0.55,-9.9 3.29,-15.54 2.98,-6.13 7.28,-9.36 7.78,-9.36 0.29,0 0.48,0.14 0.48,0.5 z"
           id="path5113" /><path
           style="fill:#000000;stroke-width:0"
           inkscape:connector-curvature="0"
           d="m 629.57,241.85 0.03,0.13 0.04,0.15 0.04,0.16 0.05,0.18 0.05,0.2 0.06,0.2 0.07,0.22 0.07,0.22 0.08,0.24 0.09,0.24 0.09,0.24 0.1,0.25 0.12,0.25 0.12,0.25 0.12,0.25 0.14,0.24 0.15,0.24 0.16,0.24 0.16,0.23 0.18,0.23 0.19,0.21 0.2,0.2 0.2,0.19 0.23,0.18 0.23,0.16 0.24,0.14 0.13,0.07 0.13,0.06 0.13,0.05 0.14,0.05 0.14,0.05 0.14,0.04 0.14,0.03 0.15,0.03 0.16,0.02 0.15,0.02 0.16,0.01 0.16,0 c 0.25,0 1.44,0 2.49,-0.64 -1.4,-0.25 -2.4,-1.5 -2.4,-2.68 0,-0.8 0.55,-1.75 1.9,-1.75 1.09,0 2.68,0.89 2.68,2.89 0,2.59 -2.93,3.28 -4.62,3.28 -2.89,0 -4.64,-2.64 -5.24,-3.78 -1.25,3.28 -3.93,3.78 -5.37,3.78 -5.19,0 -8.03,-6.42 -8.03,-7.67 0,-0.5 0.5,-0.5 0.61,-0.5 0.39,0 0.54,0.1 0.64,0.54 1.68,5.28 4.98,6.53 6.67,6.53 0.95,0 2.69,-0.43 2.69,-3.32 0,-1.55 -0.85,-4.9 -2.69,-11.86 -0.8,-3.1 -2.53,-5.19 -4.74,-5.19 -0.29,0 -1.43,0 -2.48,0.65 1.25,0.24 2.35,1.29 2.35,2.69 0,1.35 -1.1,1.74 -1.85,1.74 -1.5,0 -2.75,-1.3 -2.75,-2.89 0,-2.29 2.5,-3.29 4.69,-3.29 3.29,0 5.08,3.49 5.23,3.79 0.6,-1.85 2.39,-3.79 5.38,-3.79 5.14,0 7.98,6.43 7.98,7.68 0,0.5 -0.45,0.5 -0.61,0.5 -0.44,0 -0.54,-0.21 -0.64,-0.55 -1.64,-5.33 -5.03,-6.53 -6.62,-6.53 -1.96,0 -2.75,1.59 -2.75,3.3 0,1.09 0.29,2.18 0.86,4.37 z"
           id="path5115" /><path
           style="fill:#000000;stroke-width:0"
           inkscape:connector-curvature="0"
           d="m 655.76,239.25 0,0.37 0,0.39 -0.01,0.39 -0.02,0.41 -0.04,0.84 -0.06,0.88 -0.08,0.92 -0.11,0.95 -0.13,0.98 -0.16,1 -0.2,1.02 -0.23,1.04 -0.27,1.05 -0.3,1.06 -0.35,1.06 -0.39,1.07 -0.22,0.53 -0.22,0.53 -0.24,0.53 -0.25,0.53 c -2.98,6.13 -7.26,9.36 -7.76,9.36 -0.3,0 -0.5,-0.19 -0.5,-0.48 0,-0.16 0,-0.25 0.93,-1.16 4.89,-4.92 7.74,-12.84 7.74,-23.27 0,-8.51 -1.85,-17.28 -8.04,-23.56 -0.63,-0.59 -0.63,-0.7 -0.63,-0.84 0,-0.3 0.2,-0.5 0.5,-0.5 0.5,0 4.96,3.39 7.92,9.72 2.53,5.47 3.12,11 3.12,15.18 z"
           id="path5117" /><path
           style="fill:#000000;stroke-width:0"
           inkscape:connector-curvature="0"
           d="m 676.88,245.13 -0.01,0.17 -0.01,0.17 -0.02,0.16 -0.03,0.16 -0.04,0.16 -0.04,0.15 -0.05,0.15 -0.06,0.15 -0.07,0.14 -0.07,0.13 -0.08,0.14 -0.08,0.12 -0.09,0.13 -0.09,0.11 -0.1,0.11 -0.11,0.11 -0.11,0.1 -0.11,0.1 -0.12,0.09 -0.12,0.08 -0.12,0.08 -0.13,0.07 -0.13,0.07 -0.14,0.06 -0.14,0.05 -0.14,0.05 -0.14,0.04 -0.14,0.03 -0.15,0.03 -0.15,0.01 -0.14,0.02 -0.15,0 c -1.91,0 -3.14,-1.55 -3.14,-3.08 0,-1.84 1.48,-3.14 3.07,-3.14 1.91,0 3.15,1.55 3.15,3.08 z"
           id="path5119" /><path
           style="fill:#000000;stroke-width:0"
           inkscape:connector-curvature="0"
           d="m 673.94,226.8 -0.07,-0.25 -0.07,-0.23 -0.07,-0.23 -0.09,-0.22 -0.08,-0.21 -0.1,-0.2 -0.1,-0.19 -0.1,-0.18 -0.11,-0.17 -0.11,-0.17 -0.11,-0.15 -0.11,-0.15 -0.12,-0.14 -0.12,-0.14 -0.12,-0.13 -0.12,-0.12 -0.12,-0.11 -0.12,-0.11 -0.13,-0.1 -0.11,-0.09 -0.12,-0.09 -0.12,-0.08 -0.11,-0.08 -0.11,-0.07 -0.11,-0.07 -0.11,-0.06 -0.1,-0.06 -0.09,-0.06 -0.09,-0.04 -0.09,-0.05 -0.08,-0.04 -0.07,-0.04 c -0.3,-0.16 -1,-0.5 -1,-1.3 0,-0.75 0.75,-1.59 1.59,-1.59 1.09,0 5.87,2.69 5.87,8.27 0,3.29 -1.48,4.89 -3.39,4.89 -1.78,0 -3.07,-1.41 -3.07,-3.1 0,-1.39 0.84,-3.14 3.28,-3.14 z"
           id="path5121" /><path
           style="fill:#000000;stroke-width:0"
           inkscape:connector-curvature="0"
           d="m 391.64,161.21 0,-0.19 -0.01,-0.2 -0.02,-0.2 -0.03,-0.21 -0.04,-0.21 -0.05,-0.21 -0.06,-0.22 -0.07,-0.22 -0.09,-0.22 -0.09,-0.22 -0.11,-0.22 -0.12,-0.22 -0.14,-0.21 -0.15,-0.22 -0.16,-0.21 -0.18,-0.21 -0.2,-0.2 -0.21,-0.19 -0.23,-0.19 -0.25,-0.19 -0.26,-0.17 -0.29,-0.17 -0.3,-0.16 -0.32,-0.14 -0.35,-0.14 -0.36,-0.12 -0.38,-0.12 -0.41,-0.1 -0.21,-0.04 -0.22,-0.04 -0.22,-0.04 -0.23,-0.03 -0.23,-0.03 -0.24,-0.03 -0.25,-0.02 -0.25,-0.02 c -0.25,-0.05 -0.44,-0.25 -0.44,-0.55 0,-0.54 0.55,-0.54 0.99,-0.54 4.84,0 9.47,2.43 9.51,6.21 v 11.36 c 0,1.96 0,3.55 2,5.19 1.75,1.45 3.64,1.55 4.74,1.6 0.25,0.04 0.45,0.25 0.45,0.54 0,0.5 -0.31,0.5 -0.8,0.55 -3.29,0.2 -5.68,2 -6.23,4.44 -0.16,0.54 -0.16,0.64 -0.16,2.43 v 9.88 c 0,2.08 0,3.69 -2.39,5.58 -1.98,1.54 -5.42,2.03 -7.12,2.03 -0.44,0 -0.99,0 -0.99,-0.55 0,-0.5 0.3,-0.5 0.8,-0.55 3.12,-0.18 5.58,-1.79 6.22,-4.32 0.15,-0.46 0.15,-0.55 0.15,-2.35 v -10.47 c 0,-2.28 0.4,-3.12 1.99,-4.73 1.05,-1.03 2.5,-1.53 3.89,-1.94 -4.08,-1.14 -5.88,-3.44 -5.88,-6.33 z"
           id="path5123" /></g>      <path
         inkscape:connector-curvature="0"
         id="path5240"
         d="m 547.32427,449.03858 c -163.64471,114.14724 91.92388,246.47723 91.92388,246.47723"
         style="fill:none;stroke:#ff0000;stroke-width:4;stroke-linecap:butt;stroke-linejoin:miter;stroke-miterlimit:4;stroke-opacity:1;stroke-dasharray:none;marker-end:url(#Arrow2MendW)" />
      <path
         style="stroke-linejoin:miter;marker-end:url(#Arrow2Mend6);stroke-opacity:1;stroke:#ff6600;stroke-linecap:butt;stroke-miterlimit:4;stroke-dasharray:none;stroke-width:4;fill:none"
         d="M 573.58824,546.01323 C 649.34968,653.0894 707.93852,699.55642 707.93852,699.55642"
         id="path5803"
         inkscape:connector-curvature="0" />
      <path
         style="stroke-linejoin:miter;marker-end:url(#Arrow2Mendm);stroke-opacity:1;stroke:#0000ff;stroke-linecap:butt;stroke-miterlimit:4;stroke-dasharray:none;stroke-width:4;fill:none"
         d="m 834.6356,447.39757 c 93.94419,7.07107 118.08206,148.31297 -25.75889,156.32111 -91.15424,5.07488 -185.363,9.34391 -265.16505,100.25764"
         id="path5803-4"
         inkscape:connector-curvature="0"
         sodipodi:nodetypes="csc" />
      <path
         style="fill:none;stroke:#5599ff;stroke-width:4;stroke-linecap:butt;stroke-linejoin:miter;stroke-miterlimit:4;stroke-opacity:1;stroke-dasharray:none;marker-end:url(#Arrow2Mend-4U)"
         d="m 817.035,551.064 c 70.71068,162.63455 -12.12184,273.75133 -12.12184,273.75133"
         id="path6013"
         inkscape:connector-curvature="0"
         sodipodi:nodetypes="cc" />
      <rect
         style="fill:none;stroke:none;stroke-width:4;stroke-linecap:round;stroke-miterlimit:4;stroke-opacity:1;stroke-dasharray:none;stroke-dashoffset:0"
         id="rect6628"
         width="548.51288"
         height="572.75653"
         x="285.87317"
         y="44.058769"
         transform="translate(102.85715,362.55341)" />
      <text
         xml:space="preserve"
         style="font-size:18px;font-style:normal;font-variant:normal;font-weight:normal;font-stretch:normal;line-height:125%;letter-spacing:0px;word-spacing:0px;fill:#ff0000;fill-opacity:1;stroke:none;font-family:Liberation Sans;-inkscape-font-specification:Liberation Sans"
         x="404.89276"
         y="630.86597"
         id="text3047"
         sodipodi:linespacing="125%"><tspan
           sodipodi:role="line"
           id="tspan3049"
           x="404.89276"
           y="630.86597"
           style="font-size:32px;font-weight:bold;fill:#ff0000;-inkscape-font-specification:Liberation Sans Bold">Type de</tspan><tspan
           sodipodi:role="line"
           x="404.89276"
           y="670.86597"
           style="font-size:32px;font-weight:bold;fill:#ff0000;-inkscape-font-specification:Liberation Sans Bold"
           id="tspan3051">l'argument</tspan></text>
      <text
         xml:space="preserve"
         style="font-size:18px;font-style:normal;font-variant:normal;font-weight:normal;font-stretch:normal;line-height:125%;letter-spacing:0px;word-spacing:0px;fill:#ff6600;fill-opacity:1;stroke:none;font-family:Liberation Sans;-inkscape-font-specification:Liberation Sans"
         x="651.02594"
         y="595.83563"
         id="text3047-4"
         sodipodi:linespacing="125%"><tspan
           sodipodi:role="line"
           x="651.02594"
           y="595.83563"
           style="font-size:32px;font-weight:bold;fill:#ff6600;-inkscape-font-specification:Liberation Sans Bold"
           id="tspan3051-1">Nom de</tspan><tspan
           sodipodi:role="line"
           x="651.02594"
           y="635.83563"
           style="font-size:32px;font-weight:bold;fill:#ff6600;-inkscape-font-specification:Liberation Sans Bold"
           id="tspan3079">l'argument</tspan></text>
      <text
         xml:space="preserve"
         style="font-size:18px;font-style:normal;font-variant:normal;font-weight:normal;font-stretch:normal;line-height:125%;letter-spacing:0px;word-spacing:0px;fill:#0000ff;fill-opacity:1;stroke:none;font-family:Liberation Sans;-inkscape-font-specification:Liberation Sans"
         x="655.06653"
         y="649.37378"
         id="text3047-1"
         sodipodi:linespacing="125%"><tspan
           sodipodi:role="line"
           id="tspan3049-7"
           x="655.06653"
           y="649.37378"
           style="font-size:32px;font-weight:bold;fill:#0000ff;-inkscape-font-specification:Liberation Sans Bold">Type de</tspan><tspan
           sodipodi:role="line"
           x="655.06653"
           y="689.37378"
           style="font-size:32px;font-weight:bold;fill:#0000ff;-inkscape-font-specification:Liberation Sans Bold"
           id="tspan3051-4">retour</tspan></text>
      <text
         xml:space="preserve"
         style="font-size:18px;font-style:normal;font-variant:normal;font-weight:normal;font-stretch:normal;line-height:125%;letter-spacing:0px;word-spacing:0px;fill:#5599ff;fill-opacity:1;stroke:none;font-family:Liberation Sans;-inkscape-font-specification:Liberation Sans"
         x="663.14319"
         y="823.32391"
         id="text3047-1-4"
         sodipodi:linespacing="125%"><tspan
           sodipodi:role="line"
           x="663.14319"
           y="823.32391"
           style="font-size:32px;font-weight:bold;fill:#5599ff;-inkscape-font-specification:Liberation Sans Bold"
           id="tspan3051-4-4">Résultat</tspan></text>
    </g>
  </g>
</svg>
